<svg width="36" height="36" viewBox="0 0 36 36" fill="none" xmlns="http://www.w3.org/2000/svg">
<path d="M3 9V1.5H10.5V4.5H6V9H3ZM30 9V4.5H25.5V1.5H33V9H30ZM3 34.5V27H6V31.5H10.5V34.5H3ZM25.5 34.5V31.5H30V27H33V34.5H25.5ZM10.5 27H25.5V9H10.5V27ZM10.5 30C9.675 30 8.96875 29.7063 8.38125 29.1188C7.79375 28.5313 7.5 27.825 7.5 27V9C7.5 8.175 7.79375 7.46875 8.38125 6.88125C8.96875 6.29375 9.675 6 10.5 6H25.5C26.325 6 27.0312 6.29375 27.6188 6.88125C28.2063 7.46875 28.5 8.175 28.5 9V27C28.5 27.825 28.2063 28.5313 27.6188 29.1188C27.0312 29.7063 26.325 30 25.5 30H10.5ZM13.5 15H22.5V12H13.5V15ZM13.5 19.5H22.5V16.5H13.5V19.5ZM13.5 24H22.5V21H13.5V24Z" fill="white"/>
</svg>
