<svg width="25" height="24" viewBox="0 0 25 24" fill="none" xmlns="http://www.w3.org/2000/svg">
<path d="M12.5001 16.5516C14.0998 16.5516 15.3966 15.2548 15.3966 13.6551C15.3966 12.0554 14.0998 10.7585 12.5001 10.7585C10.9003 10.7585 9.60352 12.0554 9.60352 13.6551C9.60352 15.2548 10.9003 16.5516 12.5001 16.5516Z" fill="black"/>
<path d="M21.1898 6.6207H18.4761C18.3023 6.62074 18.133 6.56609 17.992 6.46449C17.851 6.36288 17.7456 6.21949 17.6907 6.05463L17.4292 5.26925C17.3192 4.93968 17.1084 4.65308 16.8265 4.45003C16.5445 4.24698 16.2059 4.1378 15.8584 4.13794H9.14093C8.79354 4.13803 8.45499 4.24742 8.17323 4.45061C7.89146 4.6538 7.68077 4.94049 7.571 5.27008L7.30948 6.05463C7.25457 6.21949 7.14916 6.36288 7.0082 6.46449C6.86723 6.56609 6.69786 6.62074 6.5241 6.6207H3.81045C3.37147 6.6207 2.95047 6.79508 2.64006 7.10549C2.32966 7.41589 2.15527 7.83689 2.15527 8.27587V18.2069C2.15527 18.6459 2.32966 19.0669 2.64006 19.3773C2.95047 19.6877 3.37147 19.8621 3.81045 19.8621H21.1898C21.6287 19.8621 22.0497 19.6877 22.3601 19.3773C22.6705 19.0669 22.8449 18.6459 22.8449 18.2069V8.27587C22.8449 7.83689 22.6705 7.41589 22.3601 7.10549C22.0497 6.79508 21.6287 6.6207 21.1898 6.6207ZM12.5001 18.2069C9.99086 18.2069 7.94838 16.1644 7.94838 13.6552C7.94838 11.1459 9.99086 9.10346 12.5001 9.10346C15.0093 9.10346 17.0518 11.1459 17.0518 13.6552C17.0518 16.1644 15.0093 18.2069 12.5001 18.2069ZM17.4656 9.93104C17.2461 9.93104 17.0356 9.84385 16.8804 9.68865C16.7252 9.53345 16.638 9.32295 16.638 9.10346C16.638 8.88397 16.7252 8.67347 16.8804 8.51827C17.0356 8.36306 17.2461 8.27587 17.4656 8.27587C17.6851 8.27587 17.8956 8.36306 18.0508 8.51827C18.206 8.67347 18.2932 8.88397 18.2932 9.10346C18.2932 9.32295 18.206 9.53345 18.0508 9.68865C17.8956 9.84385 17.6851 9.93104 17.4656 9.93104Z" fill="black"/>
<path d="M5.05188 5.79316H3.3967C3.28696 5.79316 3.18171 5.74957 3.10411 5.67197C3.02651 5.59436 2.98291 5.48911 2.98291 5.37937C2.98291 5.26962 3.02651 5.16437 3.10411 5.08677C3.18171 5.00917 3.28696 4.96558 3.3967 4.96558H5.05188C5.16162 4.96558 5.26687 5.00917 5.34447 5.08677C5.42207 5.16437 5.46567 5.26962 5.46567 5.37937C5.46567 5.48911 5.42207 5.59436 5.34447 5.67197C5.26687 5.74957 5.16162 5.79316 5.05188 5.79316Z" fill="black"/>
</svg>
