<svg width="24" height="24" viewBox="0 0 24 24" fill="none" xmlns="http://www.w3.org/2000/svg">
<path d="M13.7859 17.1328C13.6641 17.0484 13.4484 16.9219 12.9656 16.9219H7.52344C5.89687 16.9219 4.5 15.6984 4.5 14.1469V9.42188H4.41562C3.18281 9.42188 2.25 10.3828 2.25 11.5547V17.5969C2.25 18.7687 3.25312 19.5 4.48594 19.5H5.25V21.75L7.73906 19.6406C7.82813 19.575 7.9875 19.5 8.35781 19.5H12.5672C13.6453 19.5 14.7891 18.9656 15 18L13.7859 17.1328Z" fill="black"/>
<path d="M18.7969 2.25H8.61094C6.98437 2.25 6 3.50625 6 5.05313V12.9375C6 14.4891 7.3125 15.75 8.93906 15.75H13.6781C14.1656 15.75 14.3812 15.8578 14.4984 15.9469L18 18.75V15.75H18.7969C20.4281 15.75 21.75 14.4891 21.75 12.9422V5.05313C21.75 3.50625 20.4281 2.25 18.7969 2.25Z" fill="black"/>
</svg>
