<svg width="20" height="21" viewBox="0 0 20 21" fill="none" xmlns="http://www.w3.org/2000/svg">
<g clip-path="url(#clip0_1009_12102)">
<path d="M19.9895 10.4171C19.9895 9.59768 19.9214 8.99975 19.7742 8.37967H10.1992V12.078H15.8195C15.7062 12.9971 15.0943 14.3812 13.7346 15.3113L13.7155 15.4351L16.7429 17.7269L16.9527 17.7474C18.8789 16.0089 19.9895 13.451 19.9895 10.4171Z" fill="#4285F4"/>
<path d="M10.1993 20.1613C12.9527 20.1613 15.2643 19.2755 16.9527 17.7475L13.7346 15.3113C12.8734 15.8982 11.7176 16.3079 10.1993 16.3079C7.50242 16.3079 5.21352 14.5695 4.39759 12.1667L4.27799 12.1766L1.13003 14.5573L1.08887 14.6691C2.76588 17.9246 6.2106 20.1613 10.1993 20.1613Z" fill="#34A853"/>
<path d="M4.39748 12.1667C4.18219 11.5466 4.05759 10.8822 4.05759 10.1957C4.05759 9.50916 4.18219 8.84481 4.38615 8.22473L4.38045 8.09267L1.19304 5.67374L1.08876 5.72221C0.397576 7.07313 0.000976562 8.59015 0.000976562 10.1957C0.000976562 11.8013 0.397576 13.3182 1.08876 14.6692L4.39748 12.1667Z" fill="#FBBC05"/>
<path d="M10.1993 4.08334C12.1142 4.08334 13.406 4.89166 14.1425 5.56716L17.0207 2.82105C15.253 1.21548 12.9527 0.22998 10.1993 0.22998C6.2106 0.22998 2.76588 2.4667 1.08887 5.72212L4.38626 8.22464C5.21352 5.82181 7.50242 4.08334 10.1993 4.08334Z" fill="#EB4335"/>
</g>
<defs>
<clipPath id="clip0_1009_12102">
<rect width="20" height="20" fill="white" transform="translate(0 0.22998)"/>
</clipPath>
</defs>
</svg>
