<svg width="36" height="36" viewBox="0 0 36 36" fill="none" xmlns="http://www.w3.org/2000/svg">
<path d="M11.6837 11.6847H6.79834C6.57456 11.6847 6.35995 11.5958 6.20172 11.4376C6.04348 11.2794 5.95459 11.0648 5.95459 10.841V5.95679C5.95459 5.73301 6.04348 5.5184 6.20172 5.36017C6.35995 5.20193 6.57456 5.11304 6.79834 5.11304H11.6842C11.908 5.11304 12.1226 5.20193 12.2808 5.36017C12.4391 5.5184 12.528 5.73301 12.528 5.95679V10.8415C12.528 11.0653 12.4391 11.2799 12.2808 11.4382C12.1226 11.5964 11.908 11.6853 11.6842 11.6853L11.6837 11.6847ZM7.64209 9.99722H10.8399V6.80054H7.64209V9.99722ZM29.2016 8.11791H18.5872C18.3634 8.11791 18.1488 8.02902 17.9906 7.87078C17.8324 7.71255 17.7435 7.49794 17.7435 7.27416C17.7435 7.05039 17.8324 6.83577 17.9906 6.67754C18.1488 6.51931 18.3634 6.43041 18.5872 6.43041H29.2016C29.4254 6.43041 29.64 6.51931 29.7982 6.67754C29.9564 6.83577 30.0453 7.05039 30.0453 7.27416C30.0453 7.49794 29.9564 7.71255 29.7982 7.87078C29.64 8.02902 29.4254 8.11791 29.2016 8.11791ZM29.2016 11.6847H16.3372C16.1134 11.6847 15.8988 11.5958 15.7406 11.4376C15.5824 11.2794 15.4935 11.0648 15.4935 10.841C15.4935 10.6172 15.5824 10.4026 15.7406 10.2444C15.8988 10.0861 16.1134 9.99722 16.3372 9.99722H29.2016C29.4254 9.99722 29.64 10.0861 29.7982 10.2444C29.9564 10.4026 30.0453 10.6172 30.0453 10.841C30.0453 11.0648 29.9564 11.2794 29.7982 11.4376C29.64 11.5958 29.4254 11.6847 29.2016 11.6847ZM11.6837 21.2866H6.79834C6.57456 21.2866 6.35995 21.1977 6.20172 21.0395C6.04348 20.8812 5.95459 20.6666 5.95459 20.4428V15.557C5.95459 15.3332 6.04348 15.1186 6.20172 14.9604C6.35995 14.8021 6.57456 14.7132 6.79834 14.7132H11.6842C11.908 14.7132 12.1226 14.8021 12.2808 14.9604C12.4391 15.1186 12.528 15.3332 12.528 15.557V20.4428C12.528 20.6666 12.4391 20.8812 12.2808 21.0395C12.1226 21.1977 11.9074 21.2866 11.6837 21.2866ZM7.64209 19.5991H10.8399V16.4007H7.64209V19.5991ZM29.2016 17.7187H18.5872C18.3634 17.7187 18.1488 17.6298 17.9906 17.4715C17.8324 17.3133 17.7435 17.0987 17.7435 16.8749C17.7435 16.6511 17.8324 16.4365 17.9906 16.2783C18.1488 16.1201 18.3634 16.0312 18.5872 16.0312H29.2016C29.4254 16.0312 29.64 16.1201 29.7982 16.2783C29.9564 16.4365 30.0453 16.6511 30.0453 16.8749C30.0453 17.0987 29.9564 17.3133 29.7982 17.4715C29.64 17.6298 29.4254 17.7187 29.2016 17.7187ZM29.2016 21.2866H16.3372C16.1134 21.2866 15.8988 21.1977 15.7406 21.0395C15.5824 20.8812 15.4935 20.6666 15.4935 20.4428C15.4935 20.2191 15.5824 20.0045 15.7406 19.8462C15.8988 19.688 16.1134 19.5991 16.3372 19.5991H29.2016C29.4254 19.5991 29.64 19.688 29.7982 19.8462C29.9564 20.0045 30.0453 20.2191 30.0453 20.4428C30.0453 20.6666 29.9564 20.8812 29.7982 21.0395C29.64 21.1977 29.4254 21.2866 29.2016 21.2866ZM11.6837 30.8868H6.79834C6.57456 30.8868 6.35995 30.7979 6.20172 30.6397C6.04348 30.4814 5.95459 30.2668 5.95459 30.043V25.1583C5.95459 24.9345 6.04348 24.7199 6.20172 24.5617C6.35995 24.4034 6.57456 24.3145 6.79834 24.3145H11.6842C11.908 24.3145 12.1226 24.4034 12.2808 24.5617C12.4391 24.7199 12.528 24.9345 12.528 25.1583V30.043C12.528 30.2668 12.4391 30.4814 12.2808 30.6397C12.1226 30.7979 11.9074 30.8868 11.6837 30.8868ZM7.64209 29.1993H10.8399V26.002H7.64209V29.1993ZM29.2016 27.3188H18.5872C18.3634 27.3188 18.1488 27.23 17.9906 27.0717C17.8324 26.9135 17.7435 26.6989 17.7435 26.4751C17.7435 26.2513 17.8324 26.0367 17.9906 25.8785C18.1488 25.7202 18.3634 25.6313 18.5872 25.6313H29.2016C29.4254 25.6313 29.64 25.7202 29.7982 25.8785C29.9564 26.0367 30.0453 26.2513 30.0453 26.4751C30.0453 26.6989 29.9564 26.9135 29.7982 27.0717C29.64 27.23 29.4254 27.3188 29.2016 27.3188ZM29.2016 30.8868H16.3372C16.1134 30.8868 15.8988 30.7979 15.7406 30.6397C15.5824 30.4814 15.4935 30.2668 15.4935 30.043C15.4935 29.8193 15.5824 29.6046 15.7406 29.4464C15.8988 29.2882 16.1134 29.1993 16.3372 29.1993H29.2016C29.4254 29.1993 29.64 29.2882 29.7982 29.4464C29.9564 29.6046 30.0453 29.8193 30.0453 30.043C30.0453 30.2668 29.9564 30.4814 29.7982 30.6397C29.64 30.7979 29.4254 30.8868 29.2016 30.8868Z" fill="#222222"/>
</svg>
