<svg width="24" height="24" viewBox="0 0 24 24" fill="none" xmlns="http://www.w3.org/2000/svg">
<g clip-path="url(#clip0_1222_648)">
<path fill-rule="evenodd" clip-rule="evenodd" d="M2.3 4.8C2.02386 4.8 1.8 5.02386 1.8 5.3V18.7C1.8 18.9761 2.02386 19.2 2.3 19.2H3.7C3.97614 19.2 4.2 18.9761 4.2 18.7V5.3C4.2 5.02386 3.97614 4.8 3.7 4.8H2.3ZM1.5 3C0.671573 3 0 3.67157 0 4.5V19.5C0 20.3284 0.671573 21 1.5 21H4.5C5.32843 21 6 20.3284 6 19.5V4.5C6 3.67157 5.32843 3 4.5 3H1.5Z" fill="black"/>
<path fill-rule="evenodd" clip-rule="evenodd" d="M9.8 4.8C9.52386 4.8 9.3 5.02386 9.3 5.3V18.7C9.3 18.9761 9.52386 19.2 9.8 19.2H11.2C11.4761 19.2 11.7 18.9761 11.7 18.7V5.3C11.7 5.02386 11.4761 4.8 11.2 4.8H9.8ZM9 3C8.17157 3 7.5 3.67157 7.5 4.5V19.5C7.5 20.3284 8.17157 21 9 21H12C12.8284 21 13.5 20.3284 13.5 19.5V4.5C13.5 3.67157 12.8284 3 12 3H9Z" fill="black"/>
<path fill-rule="evenodd" clip-rule="evenodd" d="M16.9519 7.46183C16.6876 7.54187 16.5383 7.82101 16.6183 8.0853L19.7825 18.532C19.8625 18.7963 20.1417 18.9457 20.4059 18.8656L21.363 18.5758C21.6273 18.4957 21.7767 18.2166 21.6966 17.9523L18.5324 7.50554C18.4524 7.24125 18.1733 7.0919 17.909 7.17195L16.9519 7.46183ZM15.4151 5.83758C14.6222 6.07772 14.1742 6.91514 14.4143 7.70799L18.1582 20.0689C18.3984 20.8617 19.2358 21.3098 20.0286 21.0696L22.8998 20.2C23.6927 19.9599 24.1408 19.1225 23.9006 18.3296L20.1567 5.96872C19.9165 5.17586 19.0791 4.7278 18.2863 4.96794L15.4151 5.83758Z" fill="black"/>
</g>
<defs>
<clipPath id="clip0_1222_648">
<rect width="24" height="24" fill="white"/>
</clipPath>
</defs>
</svg>
